The Battle of the Damned (1969)
Quella dannata pattuglia (original title)

A small band of American soldiers is sent on a dangerous mission to blow up a German fuel depot in the deserts of North Africa.

Subtitles: Romanian

General
Complete name                            : Quella.Dannata.Pattuglia.1968.iTALiAN.AC3.DVDrip.Jim.PapeeteGroup.avi
Format                                   : AVI
Format/Info                              : Audio Video Interleave
File size                                : 1.09 GiB
Duration                                 : 1h 20mn
Overall bit rate                         : 1 943 Kbps
Movie name                               : Quella.Dannata.Pattuglia.1968.iTALiAN.AC3.DVDrip.(Jim.PapeeteGroup)
Encoded by                               : Jim.PapeeteGroup
Writing application                      : VirtualDubMod 1.5.10.2 (build 2540/release) VirtualDubMod build 2540/release

Video
ID                                       : 0
Format                                   : MPEG-4 Visual
Format settings, BVOP                    : 1
Format settings, QPel                    : No
Format settings, GMC                     : No warppoints
Format settings, Matrix                  : Default (H.263)
Muxing mode                              : Packed bitstream
Codec ID                                 : DX50
Codec ID/Hint                            : DivX 5
Duration                                 : 1h 20mn
Bit rate                                 : 1 742 Kbps
Width                                    : 640 pixels
Height                                   : 352 pixels
Display aspect ratio                     : 16:9
Frame rate                               : 25.000 fps
Color space                              : YUV
Chroma subsampling                       : 4:2:0
Bit depth                                : 8 bits
Scan type                                : Progressive
Compression mode                         : Lossy
Bits/(Pixel*Frame)                       : 0.309
Stream size                              : 998 MiB (90%)
Writing library                          : DivX 6.8.3-6.8.4 (UTC 2008-06-07)

Audio
ID                                       : 1
Format                                   : AC-3
Format/Info                              : Audio Coding 3
Mode extension                           : CM (complete main)
Format settings, Endianness              : Big
Codec ID                                 : 2000
Duration                                 : 1h 20mn
Bit rate mode                            : Constant
Bit rate                                 : 192 Kbps
Channel(s)                               : 2 channels
Channel positions                        : Front: L R
Sampling rate                            : 48.0 KHz
Bit depth                                : 16 bits
Compression mode                         : Lossy
Stream size                              : 110 MiB (10%)
Alignment                                : Split accross interleaves
Interleave, duration                     : 40 ms (1.00 video frame)
Interleave, preload duration             : 500 ms
Language                                 : Non definita / Italiano


Romanien sub